<svg xmlns="http://www.w3.org/2000/svg" viewBox="0 0 1113.58 260"><defs><style>.cls-1,.cls-2{fill:#212121;}.cls-2,.cls-3,.cls-6{opacity:0;}.cls-4{fill:#f6bf32;}.cls-5,.cls-6{fill:#fff;}</style></defs><title>Asset 9</title><g id="Layer_2" data-name="Layer 2"><g id="Layer_1-2" data-name="Layer 1"><path class="cls-1" d="M269.72,108.59H260v-7.91h27.84v7.91h-9.72v50.73h-8.4Z"/><path class="cls-1" d="M301.43,100.68h8.4V125.8h10.38V100.68h8.4v58.64h-8.4V133.21H309.83v26.11h-8.4Z"/><path class="cls-1" d="M346.4,100.68h25v7.91H354.8V125.8h14.49v7.91H354.8v17.21h16.64v8.4h-25Z"/><path class="cls-1" d="M412,100.68h25v7.91H420.36V125.8h14.49v7.91H420.36v17.21H437v8.4H412Z"/><path class="cls-1" d="M452,100.68h8.07L472.74,136h.17V100.68h8.4v58.64H473.4l-12.85-35.25h-.16v35.25H452Z"/><path class="cls-1" d="M498.27,114.52a14.88,14.88,0,0,1,1.24-6.26,12.87,12.87,0,0,1,3.25-4.49,14.25,14.25,0,0,1,4.53-2.68,14.55,14.55,0,0,1,10.13,0,14,14,0,0,1,4.53,2.68,12.87,12.87,0,0,1,3.25,4.49,14.88,14.88,0,0,1,1.24,6.26v3H518v-3a5.57,5.57,0,0,0-1.69-4.49,6.26,6.26,0,0,0-8,0,5.61,5.61,0,0,0-1.69,4.49v31a5.59,5.59,0,0,0,1.69,4.49,6.26,6.26,0,0,0,8,0,5.56,5.56,0,0,0,1.69-4.49v-11h-6.67V127h15.07v18.44a14.86,14.86,0,0,1-1.24,6.31,13,13,0,0,1-3.25,4.44,13.86,13.86,0,0,1-4.53,2.68,14.55,14.55,0,0,1-10.13,0,14.07,14.07,0,0,1-4.53-2.68,13,13,0,0,1-3.25-4.44,14.86,14.86,0,0,1-1.24-6.31Z"/><path class="cls-1" d="M553,100.68h7l13.1,58.64h-8.4l-2.47-12.6H550.82l-2.47,12.6H540Zm3.54,16.88h-.16l-4.12,21.25h8.4Z"/><path class="cls-1" d="M586.65,114.52a15,15,0,0,1,1.23-6.26,13,13,0,0,1,3.26-4.49,14,14,0,0,1,4.53-2.68,14.55,14.55,0,0,1,10.13,0,14.25,14.25,0,0,1,4.53,2.68,13,13,0,0,1,3.25,4.49,15,15,0,0,1,1.24,6.26v3h-8.4v-3a5.61,5.61,0,0,0-1.69-4.49,6.26,6.26,0,0,0-8,0,5.57,5.57,0,0,0-1.69,4.49v31a5.56,5.56,0,0,0,1.69,4.49,6.26,6.26,0,0,0,8,0,5.59,5.59,0,0,0,1.69-4.49v-11h-6.68V127h15.08v18.44a15,15,0,0,1-1.24,6.31,13.18,13.18,0,0,1-3.25,4.44,14.07,14.07,0,0,1-4.53,2.68,14.55,14.55,0,0,1-10.13,0,13.86,13.86,0,0,1-4.53-2.68,13.2,13.2,0,0,1-3.26-4.44,15,15,0,0,1-1.23-6.31Z"/><path class="cls-1" d="M632.11,100.68h25v7.91H640.51V125.8H655v7.91h-14.5v17.21h16.64v8.4h-25Z"/><path class="cls-1" d="M672.47,100.68h8.07l10.79,31h.17l10.7-31h8.16v58.64H702V123.66h-.17l-8.32,25.2h-4.2L681,123.66h-.17v35.66h-8.4Z"/><path class="cls-1" d="M728.15,100.68h25v7.91H736.55V125.8H751v7.91H736.55v17.21h16.64v8.4h-25Z"/><path class="cls-1" d="M768.17,100.68h8.08L788.93,136h.16V100.68h8.41v58.64h-7.91l-12.85-35.25h-.16v35.25h-8.41Z"/><path class="cls-1" d="M820.47,108.59h-9.72v-7.91h27.84v7.91h-9.71v50.73h-8.41Z"/><path class="cls-1" d="M877.38,100.68H890a18.86,18.86,0,0,1,6.09.9,11.75,11.75,0,0,1,4.78,3.22,12.47,12.47,0,0,1,3,5.39,33.68,33.68,0,0,1,.83,8.36,40.64,40.64,0,0,1-.46,6.63,13.88,13.88,0,0,1-1.93,5.15,12.26,12.26,0,0,1-4.61,4.49,15.57,15.57,0,0,1-7.58,1.6h-4.28v22.9h-8.41Zm8.41,27.84h4a8.7,8.7,0,0,0,4-.74,4.76,4.76,0,0,0,2.05-2,8,8,0,0,0,.79-3.09c.08-1.21.12-2.55.12-4s0-2.67-.12-3.91a9.47,9.47,0,0,0-.74-3.21,4.73,4.73,0,0,0-1.94-2.14,7.52,7.52,0,0,0-3.79-.78h-4.36Z"/><path class="cls-1" d="M927.05,100.68h7l13.1,58.64h-8.4l-2.47-12.6H924.83l-2.47,12.6H914Zm3.54,16.88h-.16l-4.12,21.25h8.4Z"/><path class="cls-1" d="M961.15,100.68h13.51q14.82,0,14.82,17.21a21.74,21.74,0,0,1-1.6,8.77,12.44,12.44,0,0,1-5.65,5.89l9.06,26.77H982.4l-7.83-25h-5v25h-8.4Zm8.4,26.19h4.78a8.48,8.48,0,0,0,3.54-.62,4.54,4.54,0,0,0,2-1.77,7.54,7.54,0,0,0,.94-2.84,30.7,30.7,0,0,0,0-7.82,6.9,6.9,0,0,0-1-2.89,4.72,4.72,0,0,0-2.18-1.77,10,10,0,0,0-3.7-.57h-4.37Z"/><path class="cls-1" d="M1010.16,108.59h-9.72v-7.91h27.84v7.91h-9.72v50.73h-8.4Z"/><path class="cls-1" d="M1049.69,134.53l-11.53-33.85h8.89l6.76,23.31h.16l6.76-23.31h8.89l-11.53,33.85v24.79h-8.4Z"/><circle class="cls-2" cx="130" cy="130" r="86.05"/><g class="cls-3"><path class="cls-1" d="M201.49,109.32c-1.72-4.32-3.61-8.51-5.53-12.49a91.68,91.68,0,0,0-8-13.43,56.47,56.47,0,0,0-5.13-6.51,64.42,64.42,0,0,0-7.94-6.35c-3.56-2.64-7.27-5.06-11-7.53s-9.57-3.8-13.72-5.78C140.74,52.71,125,50.16,114.38,51c-10.07.78-11.79,1.59-20.71,6.34A67.84,67.84,0,0,0,71.54,75.42a103.37,103.37,0,0,0-14.4,25.29A61.52,61.52,0,0,0,53,118.4a40.76,40.76,0,0,0-1.2,4A47.6,47.6,0,0,0,51,140.16c.87,6.85,3.67,13.24,5.14,20,.2,6.15,1.08,12.55,4.47,17.78,3.52,5.42,8.36,9.32,13.81,12.7a119.38,119.38,0,0,0,26.62,12.26c1.4.45,2.81.87,4.24,1.26a57.29,57.29,0,0,0,22.92,5.1,66.28,66.28,0,0,0,13-1.17,31.35,31.35,0,0,0,5.92-1.37l.31-.11a70.42,70.42,0,0,0,12.84-5.11c1.11-.45,2.22-.9,3.33-1.33a51.24,51.24,0,0,0,14.79-8.38c3.16-2.62,6.23-5.38,9.18-8.24a90.47,90.47,0,0,0,8-8.83,50.83,50.83,0,0,0,4.38-5.57c.28-.43.56-.86.83-1.3,7.37-10.51,9.79-23.16,8.31-35.84A61,61,0,0,0,201.49,109.32Z"/></g><path class="cls-4" d="M122.67,88.64c7.31-.25,14.62-.54,21.88-1.44,1.5-.19,3.36-.47,5.1-.77q3-.53,6-1.2a111.51,111.51,0,0,0,12.53-3.65,83.54,83.54,0,0,0,13.44-5.82c-2.08-1.9-4.59-3.61-6.8-5.25-3.56-2.64-7.27-5.06-11-7.52s-9.57-3.81-13.72-5.79c-8.75-4.19-22.91-6.68-33.38-6.37-.58.84-1.16,1.69-1.73,2.56-1.94,2.94-3.76,6-5.48,9A198.9,198.9,0,0,0,100,82.05c-.84,2-1.66,4-2.46,6.07C105.89,88.63,114.29,88.94,122.67,88.64Z"/><path class="cls-4" d="M154.24,92.56a167.17,167.17,0,0,1-24.54,2.7c-6.11.27-12.2.49-18.31.33-5.46-.14-10.93-.4-16.38-.73a141.27,141.27,0,0,0-6.45,24.29c0,.35-.11.7-.16,1.06,0,.11-.06.44-.08.57a13.26,13.26,0,0,0-.12,1.67,17.51,17.51,0,0,0,.58,5.49,6.7,6.7,0,0,0,.72,1.88,12.17,12.17,0,0,0,.63,1.11l.3.46s.17.22.25.35l.43.51c.21.24.42.47.64.69l.65.62.23.18a11.67,11.67,0,0,0,1.48.9c.18.09,1,.43.28.15l.8.29a29.27,29.27,0,0,0,4.63,1c1.27.19,2.62.36,4,.5.29-1,.63-1.91,1-2.84a44.06,44.06,0,0,1,7.46-13,24.74,24.74,0,0,1,22.16-8,12.36,12.36,0,0,1,9.47,7.33A15.11,15.11,0,0,1,144,130.3c-2.76,8.27-10.59,12-18.7,13.11a81.06,81.06,0,0,1-16,.55A15.08,15.08,0,0,0,111.4,154a17.06,17.06,0,0,0,3,3.35l.84.72a1.56,1.56,0,0,1,.24.21l.11.07a15.75,15.75,0,0,0,1.52.92,12.58,12.58,0,0,0,1.92.87c.84.33,1.7.62,2.57.89a57.69,57.69,0,0,0,6.5,1.62,48.33,48.33,0,0,0,5.84.75c2.14-5.42,4.39-10.71,8.1-15.27,4.95-6.08,13-10,20.91-9.19,4.28.42,8.53,2.17,10.75,6.07a14.71,14.71,0,0,1,1,10.92,16.78,16.78,0,0,1-6.86,9.71,28.05,28.05,0,0,1-6.64,2.9c-5.4,1.74-11.28,1.91-16.91,2-1.9,0-3.81,0-5.71,0-2.67,7.12-5.1,14.33-7.35,21.59-1.75,5.65-3.28,11.34-4.76,17,.57,0,1.15.05,1.72.05a66.27,66.27,0,0,0,13-1.16,32.17,32.17,0,0,0,5.92-1.38l.31-.11a69.71,69.71,0,0,0,12.84-5.11c1.11-.45,2.22-.9,3.33-1.33a51.24,51.24,0,0,0,14.79-8.38c3.16-2.62,6.23-5.38,9.18-8.23a91.75,91.75,0,0,0,8-8.84,50.83,50.83,0,0,0,4.38-5.57c.28-.43.56-.86.83-1.3,7.37-10.5,9.79-23.16,8.31-35.84a61.1,61.1,0,0,0-7.7-22.65c-1.72-4.32-3.61-8.51-5.53-12.49a91.06,91.06,0,0,0-8-13.42c-.56-.79-1.12-1.58-1.7-2.36-1.42.82-2.89,1.58-4.41,2.3A117,117,0,0,1,154.24,92.56Z"/><path class="cls-4" d="M87.55,87.43l2.78.2c2.42-6.4,5.16-12.69,8.13-18.81A166.33,166.33,0,0,1,108,51.63c-5.07.79-7.72,2.14-14.36,5.67A67.84,67.84,0,0,0,71.48,75.39a100.51,100.51,0,0,0-6.81,10l1.11.12C73,86.24,80.29,86.89,87.55,87.43Z"/><path class="cls-4" d="M123.53,136.76a25.63,25.63,0,0,0,9.28-2.82,9,9,0,0,0,1.82-1.33c.32-.3.62-.61.91-.94l.28-.33.08-.12a12.85,12.85,0,0,0,1.24-2.16s.18-.49.22-.59c.12-.37.23-.75.32-1.13s.11-.54.17-.81a.75.75,0,0,0,0-.17c0-.08,0-.17,0-.19,0-.21,0-.42,0-.63s0-.61,0-.92c0-.09-.05-.56-.06-.75s-.14-.64-.18-.78-.16-.52-.25-.77c.13.4-.48-.74-.46-.71a6,6,0,0,0-3.45-2,7.32,7.32,0,0,0-2.07-.29,17.25,17.25,0,0,0-2.69.11h0l-.18,0-.56.11c-.42.08-.85.18-1.27.3-.87.24-1.74.52-2.59.84a18.63,18.63,0,0,0-4.07,2.2,5.9,5.9,0,0,0-.75.61c-.34.29-.66.58-1,.89a25.13,25.13,0,0,0-1.7,1.87,29.39,29.39,0,0,0-3.2,5.09,54.63,54.63,0,0,0-2.54,5.74l.39,0A72.54,72.54,0,0,0,123.53,136.76Z"/><path class="cls-4" d="M152.08,163.34l1.93-.2.14,0h.08l.84-.13c1-.17,2-.38,2.91-.64a27.23,27.23,0,0,0,2.65-.85l.73-.28.1,0c.35-.17.71-.32,1.07-.48a8.17,8.17,0,0,0,3.24-2.24,7,7,0,0,0,1.12-1.58,7.55,7.55,0,0,0,.83-1.73,8.57,8.57,0,0,0,.65-4.1c0-.21,0-.43,0-.64,0,.15.14.64,0,0-.07-.31-.13-.61-.21-.91,0-.13-.2-.55-.25-.7s-.29-.52-.36-.62a4.93,4.93,0,0,0-1-1,5,5,0,0,0-1.76-.85,10.83,10.83,0,0,0-4.43-.48,15.2,15.2,0,0,0-4.35.83l-1.34.47-.37.14-.26.12a20.38,20.38,0,0,0-2,1,21.91,21.91,0,0,0-6.92,7.25,47.05,47.05,0,0,0-3,6l-.42,1,0,.08c-.06.15-.11.29-.17.43s-.14.35-.22.52h.66C145.28,163.68,148.69,163.63,152.08,163.34Z"/><path class="cls-4" d="M115.3,166.05c-7.16-3.09-12.69-10.51-13-18.37a29.67,29.67,0,0,1,.15-4.32c-1.35-.16-2.69-.34-4-.54-3.13-.46-6.42-1.19-9.07-3a18.11,18.11,0,0,1-6.3-7.66c-2.94-6.8-1.41-14.3.18-21.25a171.61,171.61,0,0,1,4.71-16.53q-9.7-.72-19.37-1.74l-7.48-.78q-2.19,4.32-4,8.84a61.38,61.38,0,0,0-4.18,17.68,40.76,40.76,0,0,0-1.2,4A47.6,47.6,0,0,0,51,140.13c.87,6.85,3.67,13.24,5.14,20,.2,6.15,1.08,12.55,4.47,17.78,3.52,5.42,8.36,9.33,13.81,12.71A120.28,120.28,0,0,0,101,202.84c1.4.44,2.81.86,4.24,1.26a57.19,57.19,0,0,0,14.25,4.32A375.1,375.1,0,0,1,131.38,170,55.14,55.14,0,0,1,115.3,166.05Z"/><g class="cls-3"><path class="cls-5" d="M25.21,94.51c15,3.93,30.84,5.49,46.28,7,14.87,1.46,29.86,2.68,44.81,2.75,17.18.08,35.06-1.18,51.53-6.27,10.71-3.3,22-7.68,30.48-15.13,7.31-6.4,12.43-15.33,15.37-24.5,5.45-17,2.28-37.73-14.15-47.42-11.88-7-26.8-7.1-39.95-4.71-18,3.25-36.28,12.74-48.26,26.66C99.83,46.23,91.79,62,85.07,78.16c-5.59,13.47-11.54,28.78-12.24,43.54-.48,10.18,4,20.73,13,26,7.89,4.61,18.59,4.77,27.48,5,9.55.2,20.42-.61,28.56-6.13,8.73-5.91,13.8-17.3,10.73-27.69-3.53-11.94-16-16.29-27.36-14.35-10.26,1.76-18.76,8.31-24,17.16-5.65,9.5-9.38,21.95-6.33,32.89,2.82,10.16,11.12,17.33,20.74,20.79,9.89,3.57,20.57,4,31,3.76,6.14-.15,12.55-.6,18.37-2.74,8.91-3.28,15.82-9.16,18.17-18.74,2.75-11.21-2.74-22.63-14-26.13-9.87-3.06-21.15.23-28.94,6.62-5.77,4.73-9.31,11-12.17,17.68a340.38,340.38,0,0,0-16.51,49.68c-2.33,9.19-4.57,18.91-1.17,28.16a30.58,30.58,0,0,0,17.22,17.77c16.93,7.22,36.62,3.85,52.9-3.42,17.36-7.75,32.16-21.13,44.68-35.19,6-6.73,11.57-13.83,17-21,3.89-5.19.83-13.41-4.31-16.42-6.13-3.59-12.51-.9-16.42,4.3C206.17,199.86,185,224,159,230.17a34.46,34.46,0,0,1-8.09,1.12q-2.3.09-4.59,0c-.8,0-4.74-.43-2.65-.12a33.39,33.39,0,0,1-7.41-1.92c2.38.94-1.13-.8-1.63-1.08-.25-.13-1.38-1.15-.35-.23,1.23,1.1-.69-.78-.89-1,1.43,1.79-.12-.31-.56-1.17-.63-1.21.2.38.24.53-.19-.69-.38-1.36-.55-2.05.53,2.18,0-1.26,0-2.06a12.89,12.89,0,0,1,.61-4.43c1.49-6.44,3.24-12.86,5.12-19.21q3.12-10.47,6.8-20.78c1.06-3,2.15-5.92,3.3-8.85.22-.55,1.64-4,.78-2,.52-1.21,1.05-2.41,1.62-3.6a24.47,24.47,0,0,1,3.09-5.25c.37-.43,2.7-2.38,1.9-1.82a10.25,10.25,0,0,1,1.6-.93c1-.46-.76.12,1.12-.42,1.47-.43,3.7-1.12,4.25-.24.35.55-6.15-5.34-2.53-2.12-.22-.2-1-1.14-.21-.52.56.44.28-.67-.11.11,0,.72,0,.77,0,.15.06-.83-.06-.58-.34.73,0,0,.66-1.63-.11-.12-.61,1.2-.13.08.25-.2a11.47,11.47,0,0,0-2.08,1c1.55-1,1.93-.68.06-.1-.89.28-1.78.56-2.69.78s-1.78.35-2.68.52c2.61-.49.18-.06-1,0-3.48.26-7,.28-10.46.25a57,57,0,0,1-10.61-.71c-1.84-.37-3.67-.8-5.47-1.34-.92-.27-1.85-.55-2.73-.89,1.06.41,0,0-.46-.21A13.81,13.81,0,0,1,120,151c.65.44,1.25,1.34-.07-.23-1.11-1.32-.43.11-1.34-1.54-1.22-2.22-.89-4.52-.14-7.28a31.88,31.88,0,0,1,4.33-9.49,7.15,7.15,0,0,1,2-2.28c1.62-1.36-1.13.81.54-.45.2-.15,2.37-1.29,1.21-.79.89-.39,3.51-1.08,3.51-1.08-.16,0,1.46-.41,1.72.12-.2-.41-1.54-1.35-1.88-1.79s-.29-1.07-.43-1.68c.53,2.34.32-.5,0,.71a3.24,3.24,0,0,1-1.64,1.8,26.08,26.08,0,0,1-8.41,1.53c-6.41.33-13.72.22-19.59-1.11-.73-.17-1.42-.38-2.14-.57.46.12,2,1.18.26.08-.28-.18-1.35-1.06-.22-.09,1.3,1.11-.24-.29-.43-.62-.57-1,.12.06.22.23-.26-.44-.57-1.86-.33-.55-.26-1.42-.09-2.23-.33-4.25s-.4,1.94.14-.8c.22-1.13.41-2.26.64-3.39.59-2.88,1.3-5.73,2.09-8.57a186.37,186.37,0,0,1,13.35-34.73,158.3,158.3,0,0,1,9.72-16.92q1.4-2.11,2.9-4.17s1.2-1.6.54-.75.79-1,.94-1.16A71.18,71.18,0,0,1,132.93,45c.89-.84,1.81-1.64,2.76-2.43,1.5-1.24-2.24,1.44.33-.21.8-.51,1.55-1.1,2.34-1.63a77.31,77.31,0,0,1,12.29-6.84,65.37,65.37,0,0,1,8.72-3c2.45-.68,7.5-1.72,8.62-1.85-.86.1,2.21-.18,2.84-.21,1.28-.08,2.56-.12,3.84-.1.82,0,1.64.07,2.46.1,3.41.14-2.15-.45.72.06a55.49,55.49,0,0,1,5.86,1.25,30.36,30.36,0,0,1,3.09,1.05c-2.4-1,.68.6,1.46,1,1.83,1,.43.34,0-.06.52.47,1,.93,1.5,1.44.1.1,1.13,1.46.43.47s.47.88.6,1.14c.6,1.18.18.13.07-.11a16.22,16.22,0,0,1,.81,2.5c.19.68.34,1.37.47,2.06.26,1.48,0-.76.08,1.18,0,1.34,0,2.67-.08,4,0,.29-.32,2.71-.12,1.39s-.18.81-.19.84a58.87,58.87,0,0,1-2.53,8.21c-2.71,5.56-6,9.82-10.92,12.6a92.75,92.75,0,0,1-23.08,8.71c-12.17,3-24.63,3.63-37.79,3.7-11,.07-22-.74-33-1.6q-10.29-.81-20.56-1.94c-7-.77-10.34-1.18-16.87-2.23-5.2-.83-10.37-1.79-15.47-3.12-14.95-3.9-21.33,19.24-6.38,23.14Z"/></g><path class="cls-6" d="M233.39,182.68a3.53,3.53,0,0,0-4.71,1.23c-9.12,12.19-19.43,24.31-31.18,34.45s-25.25,18.42-40.59,20.89a55.92,55.92,0,0,1-10.63.57c-1.52-.06-3.05-.18-4.56-.37l-.18,0,.18,0-.57-.09-1.13-.2q-1.17-.21-2.34-.51a33.75,33.75,0,0,1-3.92-1.26l-.17-.06.17.06-.44-.18-.92-.45c-.59-.3-1.18-.63-1.75-1-.28-.17-.55-.35-.82-.54-.08-.06-.44-.33-.58-.42.11.08.16.13,0,0s-.08-.07,0,0l-.38-.33q-.42-.36-.81-.75c-.44-.44-.85-.9-1.25-1.38a.36.36,0,0,1,.07.1s-.36-.45-.11-.15l0,0-.17-.24c-.21-.31-.42-.62-.61-.94-.32-.53-.59-1.08-.86-1.63l-.07-.12c.05.18-.09-.16,0,0,0,0,0-.13-.09-.26-.13-.38-.26-.75-.38-1.13a19.06,19.06,0,0,1-.47-1.95c0-.11-.11-.71-.14-.84,0,0,0,.06,0,0s0-.06,0,0c0-.18-.07-.81-.08-1a32.21,32.21,0,0,1,1.32-10.54l1.17-4.54c1.48-5.71,3-11.4,4.76-17,2.25-7.26,4.68-14.47,7.35-21.59,1.9.05,3.81.06,5.71,0,5.63,0,11.51-.22,16.91-2a28.05,28.05,0,0,0,6.64-2.9,16.78,16.78,0,0,0,6.86-9.71,14.71,14.71,0,0,0-1-10.92c-2.22-3.9-6.47-5.65-10.75-6.07-7.92-.77-16,3.11-20.91,9.19-3.71,4.56-6,9.85-8.1,15.27a48.33,48.33,0,0,1-5.84-.75,57.69,57.69,0,0,1-6.5-1.62c-.87-.27-1.73-.56-2.57-.89a12.58,12.58,0,0,1-1.92-.87,15.75,15.75,0,0,1-1.52-.92l-.11-.07c.11.1-.15-.1,0,0a1.56,1.56,0,0,0-.24-.21l-.84-.72a17.06,17.06,0,0,1-3-3.35A15.08,15.08,0,0,1,109.25,144a81.06,81.06,0,0,0,16-.55c8.11-1.15,15.94-4.84,18.7-13.11a15.11,15.11,0,0,0-.07-10.19,12.36,12.36,0,0,0-9.47-7.33,24.74,24.74,0,0,0-22.16,8,44.06,44.06,0,0,0-7.46,13c-.37.93-.71,1.88-1,2.84-1.39-.14-2.74-.31-4-.5a29.27,29.27,0,0,1-4.63-1l-.8-.29c.74.28-.1-.06-.28-.15a11.67,11.67,0,0,1-1.48-.9l0,0h0l-.18-.13.14.09-.23-.18-.65-.62c-.22-.22-.43-.45-.64-.69l-.43-.51c.09.11.13.18,0,0s0-.07,0,0c-.08-.13-.22-.31-.25-.35l-.3-.46a12.17,12.17,0,0,1-.63-1.11,6.7,6.7,0,0,1-.72-1.88,17.51,17.51,0,0,1-.58-5.49,13.26,13.26,0,0,1,.12-1.67c0,.12,0,.09,0-.34,0,.12,0,.23,0,.34,0-.13.06-.46.08-.57,0-.36.11-.71.16-1.06A141.27,141.27,0,0,1,95,94.86c5.45.33,10.92.59,16.38.73,6.11.16,12.2-.06,18.31-.33a167.17,167.17,0,0,0,24.54-2.7,117,117,0,0,0,27.52-9.24c1.52-.72,3-1.48,4.41-2.3a37.27,37.27,0,0,0,7.46-5.57,44.18,44.18,0,0,0,7.49-9.71c7.21-12.57,10.28-31.4-.41-43-4.05-4.41-9.78-6.9-15.55-8.16a53.13,53.13,0,0,0-14.93-1.18,77.27,77.27,0,0,0-23,5.24,80.8,80.8,0,0,0-24,14.2,83,83,0,0,0-13.34,15.85c-.66,1-1.31,2-1.94,3a166.33,166.33,0,0,0-9.51,17.19c-3,6.12-5.71,12.41-8.13,18.81l-2.78-.2c-7.26-.54-14.53-1.19-21.77-2l-1.11-.12q-4.87-.54-9.73-1.15c-1.77-.23-2.71-.36-4.64-.63-1.66-.24-3.31-.49-5-.75A162.16,162.16,0,0,1,29.26,79.6c-4.29-1.14-6.12,5.5-1.83,6.63,11,2.9,22.33,4.4,33.63,5.62l7.48.78q9.66,1,19.37,1.74A171.61,171.61,0,0,0,83.2,110.9c-1.59,6.95-3.12,14.45-.18,21.25a18.11,18.11,0,0,0,6.3,7.66c2.65,1.82,5.94,2.55,9.07,3,1.34.2,2.68.38,4,.54a29.67,29.67,0,0,0-.15,4.32c.34,7.86,5.87,15.28,13,18.37a55.14,55.14,0,0,0,16.08,4,375.1,375.1,0,0,0-11.9,38.38c-.21.86-.43,1.72-.64,2.58-1.87,7.52-3,15.34.63,22.53,2.87,5.71,8.5,9.32,14.43,11.2a51.9,51.9,0,0,0,21.47,1.63,73,73,0,0,0,24.38-7.57c15.42-7.78,28.47-19.9,39.83-32.75,5.29-6,10.26-12.25,15-18.65C235.74,185.9,234.87,183.54,233.39,182.68ZM100,82.05a198.9,198.9,0,0,1,9.56-19.63c1.72-3.07,3.54-6.09,5.48-9,.57-.87,1.15-1.72,1.73-2.56,1.31-1.87,2.63-3.65,3.89-5.21a70.32,70.32,0,0,1,6.23-6.79c1-1,2.1-1.89,3.2-2.77v0l-.14.11.14-.11.21-.15,1-.76c1-.76,2.1-1.49,3.18-2.21a78.88,78.88,0,0,1,23.87-10.68q2.64-.68,5.34-1.17c1.93-.35,2.6-.44,4.3-.62a55.93,55.93,0,0,1,8-.28c.49,0,1,0,1.46.09l.73.07h.07l.24,0c.57.06,0,0-.24,0l.59.07.75.11,1.59.26a40.85,40.85,0,0,1,7,1.78l.89.34.1,0c-.35-.17.37.13,0,0l.1,0c.63.3,1.27.6,1.88.93s1.08.62,1.6,1l.83.58.23.16c-.06-.06.1.07,0,0a2.64,2.64,0,0,0,.23.2c.49.43,1,.86,1.42,1.33.25.25.5.52.73.78l.31.36.12.14c-.15-.2.14.15,0,0l0,0a20.67,20.67,0,0,1,2.28,3.88c.29.64.13.31.07.17.07.17.14.34.2.51.15.42.29.83.42,1.25a25.44,25.44,0,0,1,.69,2.7,23.84,23.84,0,0,1,.46,4.5,33,33,0,0,1-1,9.15A40.73,40.73,0,0,1,190.32,69a35.17,35.17,0,0,1-8.72,6.77,83.54,83.54,0,0,1-13.44,5.82,111.51,111.51,0,0,1-12.53,3.65q-3,.67-6,1.2c-1.74.3-3.6.58-5.1.77-7.26.9-14.57,1.19-21.88,1.44-8.38.3-16.78,0-25.15-.52C98.32,86.08,99.14,84.05,100,82.05Zm13.46,49.32a29.39,29.39,0,0,1,3.2-5.09,25.13,25.13,0,0,1,1.7-1.87c.31-.31.63-.6,1-.89a5.9,5.9,0,0,1,.75-.61,18.63,18.63,0,0,1,4.07-2.2c.85-.32,1.72-.6,2.59-.84.42-.12.85-.22,1.27-.3l.56-.11.18,0c-.44,0,.15,0,0,0h0a17.25,17.25,0,0,1,2.69-.11,7.32,7.32,0,0,1,2.07.29,6,6,0,0,1,3.45,2s.59,1.11.46.71l-.05-.14c0,.06,0,.1.05.14.09.25.18.51.25.77s.13.59.18.78c0-.09,0-.11,0,0s0,.09,0,0c0,.19.06.66.06.75,0,.31,0,.61,0,.92s0,.42,0,.63c0,0,0,.11,0,.19,0-.13,0-.25,0,0s0,.13,0,0a.75.75,0,0,1,0,.17c-.06.27-.1.54-.17.81s-.2.76-.32,1.13c0,.1-.22.56-.22.59l.07-.14c-.05.11-.07.15-.07.14a12.85,12.85,0,0,1-1.24,2.16l-.08.12.07-.09c0,.05-.15.21-.07.09l-.28.33c-.29.33-.59.64-.91.94a9,9,0,0,1-1.82,1.33,25.63,25.63,0,0,1-9.28,2.82,72.54,72.54,0,0,1-12.24.37l-.39,0A54.63,54.63,0,0,1,113.44,131.37Zm28,31.77c.06-.14.11-.28.17-.43v0h0l0-.05v0l0-.08.42-1a47.05,47.05,0,0,1,3-6,21.91,21.91,0,0,1,6.92-7.25,20.38,20.38,0,0,1,2-1l.26-.12-.12,0,.12,0,.37-.14,1.34-.47a15.2,15.2,0,0,1,4.35-.83,10.83,10.83,0,0,1,4.43.48,5,5,0,0,1,1.76.85,4.93,4.93,0,0,1,1,1c.07.1.27.47.36.62,0-.08,0-.1,0,0s0,.08,0,0c0,.15.21.57.25.7.08.3.14.6.21.91.14.66,0,.17,0,0,0,.21,0,.43,0,.64a8.57,8.57,0,0,1-.65,4.1,7.55,7.55,0,0,1-.83,1.73,7,7,0,0,1-1.12,1.58,8.17,8.17,0,0,1-3.24,2.24c-.36.16-.72.31-1.07.48l.26-.11s-.71.32-.37.16l.11-.05-.1,0-.73.28a27.23,27.23,0,0,1-2.65.85c-1,.26-1.93.47-2.91.64l-.84.13h-.08c.5-.05-.37.07,0,0l-.14,0-1.93.2c-3.39.29-6.8.34-10.21.33h-.66C141.29,163.49,141.35,163.32,141.43,163.14Z"/><path class="cls-2" d="M10.82,147.29c2.34-.08,4.68-.21,7-.42,1-.09,2.06-.21,3.09-.33h0l.11,0,1.36-.22a48.47,48.47,0,0,0,8.7-2.29c.69-.25,1.36-.55,2.05-.8-1.59.59.32-.15.87-.4a28.73,28.73,0,0,0,2.61-1.29c.27-.16,1.23-.78,1.1-.68s.88-.76,1.18-1a15.2,15.2,0,0,0,3.67-5.4c-.27.6.35-1,.46-1.31.17-.54.32-1.08.45-1.63.07-.29.25-1.18.3-1.42s.1-1,.11-1.18c0-.71,0-1.41,0-2.12,0-.24,0-.48,0-.72a15.31,15.31,0,0,0-.68-2.58s-.39-.7-.54-.93c-.51-.84-.16-.35-.7-.89a6.51,6.51,0,0,0-2.29-1.68l-.64-.31-.42-.16c-.66-.22-1.32-.41-2-.57a9.4,9.4,0,0,0-2.69-.38,35.43,35.43,0,0,0-4.25.07l-.7.07-.49.06c-.57.1-1.14.21-1.7.33A37.72,37.72,0,0,0,23,120.13l-1.61.59-.35.13-.66.3a35.75,35.75,0,0,0-3.5,1.89,23.34,23.34,0,0,0-2.49,1.78C7.73,130.55,4,138,.6,146c0,.07-.46,1.12-.56,1.34l0,.11C3.61,147.44,7.22,147.42,10.82,147.29Z"/><path class="cls-2" d="M226.87,142.6c2.34-.08,4.67-.21,7-.42,1-.09,2.07-.21,3.1-.32h0l.12,0,1.35-.21a49.12,49.12,0,0,0,8.7-2.3c.69-.25,1.37-.55,2.06-.8-1.6.59.31-.15.86-.4a28.91,28.91,0,0,0,2.62-1.29l1.1-.68c-.06,0,.88-.75,1.17-1a14.9,14.9,0,0,0,3.67-5.39c-.26.59.36-1,.46-1.32.17-.54.32-1.08.46-1.63.07-.29.25-1.18.3-1.42s.09-1,.11-1.17c0-.72,0-1.42,0-2.13,0-.24,0-.48-.05-.72a13.62,13.62,0,0,0-.68-2.58s-.39-.69-.53-.93c-.51-.84-.17-.34-.7-.89a6.68,6.68,0,0,0-2.3-1.68l-.63-.31-.43-.16q-1-.33-2-.57a10.23,10.23,0,0,0-2.7-.38,35.46,35.46,0,0,0-4.25.07l-.7.07-.48.06c-.57.1-1.14.21-1.71.34a35.19,35.19,0,0,0-3.77,1.07l-1.61.59-.35.13-.66.3a33.82,33.82,0,0,0-3.5,1.9,24.61,24.61,0,0,0-2.49,1.77c-6.69,5.73-10.44,13.21-13.81,21.15,0,.07-.47,1.12-.56,1.35l0,.1C219.65,142.76,223.26,142.73,226.87,142.6Z"/><path class="cls-2" d="M117.33,226.87c.08,2.34.21,4.67.41,7,.09,1,.22,2.07.33,3.1v0s0,.07,0,.12c.07.45.13.9.21,1.35a50,50,0,0,0,2.29,8.7c.26.69.55,1.37.81,2.06-.6-1.6.14.31.39.86.41.89.81,1.77,1.3,2.62.16.27.77,1.23.68,1.1s.75.88,1,1.17a14.9,14.9,0,0,0,5.39,3.67c-.59-.26,1,.36,1.32.46.54.17,1.08.32,1.63.46l1.41.3,1.18.11c.71,0,1.42,0,2.13,0,.24,0,.48,0,.72-.05a13.53,13.53,0,0,0,2.57-.68s.7-.39.93-.53c.85-.51.35-.17.9-.7a6.68,6.68,0,0,0,1.68-2.3l.31-.63.16-.43a19.4,19.4,0,0,0,.56-2,9.47,9.47,0,0,0,.38-2.7,35.46,35.46,0,0,0-.06-4.25c0-.23-.05-.46-.07-.7s-.06-.43-.07-.48q-.13-.86-.33-1.71a33.06,33.06,0,0,0-1.08-3.77c-.18-.54-.38-1.07-.58-1.61-.06-.15-.1-.26-.13-.35l-.3-.66a33.82,33.82,0,0,0-1.9-3.5,24.61,24.61,0,0,0-1.77-2.49c-5.74-6.69-13.22-10.44-21.15-13.81l-1.35-.56-.1,0C117.17,219.65,117.2,223.26,117.33,226.87Z"/><path class="cls-2" d="M111.07,10.82c.09,2.34.21,4.68.42,7,.09,1,.21,2.06.33,3.09v0s0,.07,0,.11c.08.45.14.91.22,1.36a49.32,49.32,0,0,0,2.29,8.7c.25.69.55,1.36.81,2.05-.6-1.59.14.32.39.87a28.73,28.73,0,0,0,1.29,2.61c.16.27.78,1.23.68,1.1s.76.88,1,1.18a15.2,15.2,0,0,0,5.4,3.67c-.59-.27,1,.35,1.32.46.53.17,1.08.32,1.62.45l1.42.3,1.18.11c.71,0,1.41,0,2.12,0l.72,0a15.07,15.07,0,0,0,2.58-.68s.7-.39.93-.54c.85-.51.35-.16.9-.7a6.5,6.5,0,0,0,1.67-2.29c0-.06.22-.45.31-.64s.17-.43.17-.42a20.34,20.34,0,0,0,.56-2,9.4,9.4,0,0,0,.38-2.69,33.47,33.47,0,0,0-.07-4.25c0-.24,0-.47-.07-.7s0-.43-.06-.49c-.1-.57-.21-1.14-.33-1.7A35.24,35.24,0,0,0,138.23,23c-.19-.54-.38-1.08-.59-1.61,0-.15-.09-.26-.13-.35s-.19-.44-.3-.66a35.75,35.75,0,0,0-1.89-3.5,23.34,23.34,0,0,0-1.78-2.49C127.81,7.73,120.33,4,112.39.6L111.05,0l-.11,0C110.92,3.61,111,7.22,111.07,10.82Z"/><path class="cls-2" d="M1080.44,144.33c2.34-.08,4.68-.21,7-.41,1-.09,2.06-.22,3.09-.33h0l.11,0,1.36-.22a50.2,50.2,0,0,0,8.7-2.29c.69-.26,1.36-.55,2-.81-1.59.6.32-.14.87-.39.88-.41,1.77-.81,2.61-1.3l1.1-.68c-.06.05.88-.75,1.18-1a15.15,15.15,0,0,0,3.67-5.39c-.27.59.35-1,.46-1.32.17-.54.32-1.08.45-1.63.07-.29.25-1.18.31-1.41s.09-1,.1-1.18c0-.71,0-1.42,0-2.13,0-.24,0-.48,0-.72a15.2,15.2,0,0,0-.68-2.57s-.39-.7-.53-.93c-.52-.85-.17-.35-.71-.9a6.63,6.63,0,0,0-2.29-1.68l-.63-.31-.43-.16a20.34,20.34,0,0,0-2-.56,9.35,9.35,0,0,0-2.69-.38,35.46,35.46,0,0,0-4.25.06l-.7.07-.48.07q-.87.14-1.71.33a33.06,33.06,0,0,0-3.77,1.08c-.54.18-1.08.38-1.61.58l-.35.13-.66.3a33.82,33.82,0,0,0-3.5,1.9,23,23,0,0,0-2.49,1.78c-6.69,5.73-10.45,13.21-13.82,21.14,0,.07-.46,1.13-.56,1.35l0,.11C1073.23,144.49,1076.84,144.46,1080.44,144.33Z"/></g></g></svg>