<?xml version="1.0" encoding="utf-8"?>
<!-- Generator: Adobe Illustrator 22.0.1, SVG Export Plug-In . SVG Version: 6.00 Build 0)  -->
<svg version="1.1" id="Layer_1" xmlns="http://www.w3.org/2000/svg" xmlns:xlink="http://www.w3.org/1999/xlink" x="0px" y="0px"
	 viewBox="0 0 883.4 260" style="enable-background:new 0 0 883.4 260;" xml:space="preserve">
<style type="text/css">
	.st0{fill:#212121;fill-opacity:0;}
	.st1{opacity:0;}
	.st2{fill:#212121;}
	.st3{fill:#F6BF32;}
	.st4{fill:#FFFFFF;}
	.st5{fill:#FFFFFF;fill-opacity:0;}
</style>
<title>Asset 9</title>
<g id="Layer_2_1_">
	<g id="Layer_1-2">
		<circle class="st0" cx="130" cy="130" r="86.1"/>
		<g class="st1">
			<path class="st2" d="M201.5,109.3c-1.7-4.3-3.6-8.5-5.5-12.5c-2.3-4.7-5-9.2-8-13.4c-1.5-2.3-3.3-4.5-5.1-6.5
				c-2.5-2.3-5.1-4.4-7.9-6.3c-3.6-2.6-7.3-5.1-11-7.5s-9.6-3.8-13.7-5.8c-9.4-4.5-25.2-7.1-35.8-6.2c-10.1,0.8-11.8,1.6-20.7,6.3
				C85.2,61.8,77.7,68,71.7,75.5c-6,7.7-10.8,16.2-14.4,25.3c-2.2,5.7-3.6,11.6-4.1,17.7c-0.5,1.3-0.9,2.6-1.2,4
				c-1.4,5.8-1.7,11.8-0.8,17.8c0.9,6.9,3.7,13.2,5.1,20c0.2,6.1,1.1,12.6,4.5,17.8c3.5,5.4,8.4,9.3,13.8,12.7
				c8.3,5.2,17.3,9.3,26.6,12.3c1.4,0.4,2.8,0.9,4.2,1.3c7.2,3.3,15,5,22.9,5.1c4.4,0,8.7-0.4,13-1.2c2-0.3,4-0.7,5.9-1.4l0.3-0.1
				c4.4-1.3,8.7-3,12.8-5.1c1.1-0.4,2.2-0.9,3.3-1.3c5.4-2,10.4-4.8,14.8-8.4c3.2-2.6,6.2-5.4,9.2-8.2c2.9-2.8,5.5-5.7,8-8.8
				c1.6-1.8,3.1-3.6,4.4-5.6c0.3-0.4,0.6-0.9,0.8-1.3c7.4-10.5,9.8-23.2,8.3-35.8C208.1,124,205.5,116.3,201.5,109.3z"/>
		</g>
		<path class="st3" d="M122.7,88.6c7.3-0.2,14.6-0.5,21.9-1.4c1.5-0.2,3.4-0.5,5.1-0.8c2-0.4,4-0.8,6-1.2c4.2-1,8.4-2.2,12.5-3.7
			c4.6-1.5,9.1-3.5,13.4-5.8c-2.1-1.9-4.6-3.6-6.8-5.2c-3.6-2.6-7.3-5.1-11-7.5s-9.6-3.8-13.7-5.8c-8.8-4.2-22.9-6.7-33.4-6.4
			c-0.6,0.8-1.2,1.7-1.7,2.6c-1.9,2.9-3.8,6-5.5,9c-3.5,6.4-6.7,12.9-9.5,19.7c-0.8,2-1.7,4-2.5,6.1
			C105.9,88.6,114.3,88.9,122.7,88.6z"/>
		<path class="st3" d="M154.2,92.6c-8.1,1.5-16.3,2.4-24.5,2.7c-6.1,0.3-12.2,0.5-18.3,0.3c-5.5-0.1-10.9-0.4-16.4-0.7
			c-2.9,7.9-5,16-6.4,24.3c0,0.3-0.1,0.7-0.2,1.1c0,0.1-0.1,0.4-0.1,0.6c-0.1,0.6-0.1,1.1-0.1,1.7c-0.1,1.8,0.1,3.7,0.6,5.5
			c0.1,0.7,0.4,1.3,0.7,1.9c0.2,0.4,0.4,0.8,0.6,1.1l0.3,0.5c0,0,0.2,0.2,0.2,0.4l0.4,0.5c0.2,0.2,0.4,0.5,0.6,0.7l0.7,0.6l0.2,0.2
			c0.5,0.3,1,0.6,1.5,0.9c0.2,0.1,1,0.4,0.3,0.1l0.8,0.3c1.5,0.5,3.1,0.8,4.6,1c1.3,0.2,2.6,0.4,4,0.5c0.3-1,0.6-1.9,1-2.8
			c1.7-4.7,4.2-9.1,7.5-13c5.6-6.2,13.9-9.2,22.2-8c4.2,0.6,7.8,3.4,9.5,7.3c1.2,3.3,1.3,6.9,0.1,10.2c-2.8,8.3-10.6,12-18.7,13.1
			c-5.3,0.7-10.7,0.9-16,0.6c-0.5,3.5,0.2,7,2.1,10c0.8,1.2,1.9,2.4,3,3.4l0.8,0.7c0.1,0.1,0.2,0.1,0.2,0.2l0.1,0.1
			c0.5,0.3,1,0.6,1.5,0.9c0.6,0.3,1.3,0.6,1.9,0.9c0.8,0.3,1.7,0.6,2.6,0.9c2.1,0.7,4.3,1.2,6.5,1.6c1.9,0.4,3.9,0.6,5.8,0.8
			c2.1-5.4,4.4-10.7,8.1-15.3c4.9-6.1,13-10,20.9-9.2c4.3,0.4,8.5,2.2,10.8,6.1c1.7,3.4,2.1,7.3,1,10.9c-1,4-3.5,7.4-6.9,9.7
			c-2.1,1.2-4.3,2.2-6.6,2.9c-5.4,1.7-11.3,1.9-16.9,2c-1.9,0-3.8,0-5.7,0c-2.7,7.1-5.1,14.3-7.4,21.6c-1.8,5.6-3.3,11.3-4.8,17
			c0.6,0,1.2,0.1,1.7,0.1c4.4,0,8.7-0.3,13-1.2c2-0.3,4-0.7,5.9-1.4l0.3-0.1c4.4-1.3,8.7-3,12.8-5.1c1.1-0.4,2.2-0.9,3.3-1.3
			c5.4-2,10.4-4.8,14.8-8.4c3.2-2.6,6.2-5.4,9.2-8.2c2.9-2.8,5.5-5.7,8-8.8c1.6-1.8,3.1-3.6,4.4-5.6c0.3-0.4,0.6-0.9,0.8-1.3
			c7.4-10.5,9.8-23.2,8.3-35.8c-1-8-3.7-15.7-7.7-22.7c-1.7-4.3-3.6-8.5-5.5-12.5c-2.3-4.7-5-9.2-8-13.4c-0.6-0.8-1.1-1.6-1.7-2.4
			c-1.4,0.8-2.9,1.6-4.4,2.3C173,87.5,163.8,90.6,154.2,92.6z"/>
		<path class="st3" d="M87.6,87.4l2.8,0.2c2.4-6.4,5.2-12.7,8.1-18.8c2.8-5.9,6-11.7,9.5-17.2c-5.1,0.8-7.7,2.1-14.4,5.7
			C85,61.7,77.5,67.9,71.4,75.4c-2.5,3.2-4.7,6.5-6.8,10l1.1,0.1C73,86.2,80.3,86.9,87.6,87.4z"/>
		<path class="st3" d="M123.5,136.8c3.2-0.3,6.4-1.3,9.3-2.8c0.7-0.4,1.3-0.8,1.8-1.3c0.3-0.3,0.6-0.6,0.9-0.9l0.3-0.3l0.1-0.1
			c0.5-0.7,0.9-1.4,1.2-2.2c0,0,0.2-0.5,0.2-0.6c0.1-0.4,0.2-0.8,0.3-1.1s0.1-0.5,0.2-0.8c0-0.1,0-0.1,0-0.2s0-0.2,0-0.2
			c0-0.2,0-0.4,0-0.6s0-0.6,0-0.9c0-0.1-0.1-0.6-0.1-0.8s-0.1-0.6-0.2-0.8s-0.2-0.5-0.2-0.8c0.1,0.4-0.5-0.7-0.5-0.7
			c-0.9-1-2.1-1.7-3.4-2c-0.7-0.2-1.4-0.3-2.1-0.3c-0.9,0-1.8,0-2.7,0.1l0,0h-0.2l-0.6,0.1c-0.4,0.1-0.8,0.2-1.3,0.3
			c-0.9,0.2-1.7,0.5-2.6,0.8c-1.4,0.6-2.8,1.3-4.1,2.2c-0.3,0.2-0.5,0.4-0.8,0.6c-0.3,0.3-0.7,0.6-1,0.9c-0.6,0.6-1.2,1.2-1.7,1.9
			c-1.2,1.6-2.3,3.3-3.2,5.1c-1,1.9-1.8,3.8-2.5,5.7h0.4C115.3,137.3,119.4,137.2,123.5,136.8z"/>
		<path class="st3" d="M152.1,163.3l1.9-0.2h0.1h0.1l0.8-0.1c1-0.2,2-0.4,2.9-0.6c0.9-0.2,1.8-0.5,2.6-0.9l0.7-0.3h0.1
			c0.4-0.2,0.7-0.3,1.1-0.5c1.2-0.5,2.4-1.2,3.2-2.2c0.4-0.5,0.8-1,1.1-1.6c0.3-0.5,0.6-1.1,0.8-1.7c0.5-1.3,0.8-2.7,0.6-4.1
			c0-0.2,0-0.4,0-0.6c0,0.1,0.1,0.6,0,0c-0.1-0.3-0.1-0.6-0.2-0.9c0-0.1-0.2-0.6-0.2-0.7s-0.3-0.5-0.4-0.6c-0.3-0.4-0.6-0.7-1-1
			c-0.5-0.4-1.1-0.7-1.8-0.9c-1.4-0.5-2.9-0.6-4.4-0.5s-2.9,0.3-4.4,0.8l-1.3,0.5l-0.4,0.1l-0.3,0.1c-0.7,0.3-1.4,0.6-2,1
			c-2.8,1.8-5.2,4.3-6.9,7.2c-1.1,1.9-2.1,3.9-3,6l-0.4,1v0.1c-0.1,0.1-0.1,0.3-0.2,0.4s-0.1,0.4-0.2,0.5h0.7
			C145.3,163.7,148.7,163.6,152.1,163.3z"/>
		<path class="st3" d="M115.3,166.1c-7.2-3.1-12.7-10.5-13-18.4c-0.1-1.4,0-2.9,0.2-4.3c-1.3-0.2-2.7-0.3-4-0.5
			c-3.1-0.5-6.4-1.2-9.1-3c-2.8-1.9-5-4.6-6.3-7.7c-2.9-6.8-1.4-14.3,0.2-21.2c1.3-5.6,2.9-11.1,4.7-16.5
			c-6.5-0.5-12.9-1.1-19.4-1.7L61.1,92c-1.5,2.9-2.8,5.8-4,8.8c-2.3,5.7-3.7,11.6-4.2,17.7c-0.5,1.3-0.9,2.6-1.2,4
			c-1.4,5.8-1.6,11.8-0.7,17.7c0.9,6.9,3.7,13.2,5.1,20c0.2,6.1,1.1,12.6,4.5,17.8c3.5,5.4,8.4,9.3,13.8,12.7
			c8.3,5.1,17.3,9.2,26.6,12.2c1.4,0.4,2.8,0.9,4.2,1.3c4.5,2.1,9.3,3.5,14.2,4.3c3.3-13,7.2-25.8,11.9-38.4
			C125.9,169.5,120.4,168.2,115.3,166.1z"/>
		<g class="st1">
			<path class="st4" d="M25.2,94.5c15,3.9,30.8,5.5,46.3,7c14.9,1.5,29.9,2.7,44.8,2.8c17.2,0.1,35.1-1.2,51.5-6.3
				c10.7-3.3,22-7.7,30.5-15.1c7.3-6.4,12.4-15.3,15.4-24.5c5.4-17,2.3-37.7-14.1-47.4c-11.9-7-26.8-7.1-39.9-4.7
				c-18,3.2-36.3,12.7-48.3,26.7C99.8,46.2,91.8,62,85.1,78.2c-5.6,13.5-11.5,28.8-12.2,43.5c-0.5,10.2,4,20.7,13,26
				c7.9,4.6,18.6,4.8,27.5,5c9.6,0.2,20.4-0.6,28.6-6.1c8.7-5.9,13.8-17.3,10.7-27.7c-3.5-11.9-16-16.3-27.4-14.3
				c-10.3,1.8-18.8,8.3-24,17.2c-5.7,9.5-9.4,21.9-6.3,32.9c2.8,10.2,11.1,17.3,20.7,20.8c9.9,3.6,20.6,4,31,3.8
				c6.1-0.1,12.6-0.6,18.4-2.7c8.9-3.3,15.8-9.2,18.2-18.7c2.8-11.2-2.7-22.6-14-26.1c-9.9-3.1-21.1,0.2-28.9,6.6
				c-5.8,4.7-9.3,11-12.2,17.7c-6.8,16.1-12.3,32.7-16.5,49.7c-2.3,9.2-4.6,18.9-1.2,28.2c3,8.1,9.2,14.5,17.2,17.8
				c16.9,7.2,36.6,3.9,52.9-3.4c17.4-7.8,32.2-21.1,44.7-35.2c6-6.7,11.6-13.8,17-21c3.9-5.2,0.8-13.4-4.3-16.4
				c-6.1-3.6-12.5-0.9-16.4,4.3C206.2,199.9,185,224,159,230.2c-2.6,0.7-5.4,1.1-8.1,1.1c-1.5,0.1-3.1,0.1-4.6,0
				c-0.8,0-4.7-0.4-2.6-0.1c-2.5-0.4-5-1-7.4-1.9c2.4,0.9-1.1-0.8-1.6-1.1c-0.2-0.1-1.4-1.1-0.4-0.2c1.2,1.1-0.7-0.8-0.9-1
				c1.4,1.8-0.1-0.3-0.6-1.2c-0.6-1.2,0.2,0.4,0.2,0.5c-0.2-0.7-0.4-1.4-0.6-2.1c0.5,2.2,0-1.3,0-2.1c-0.1-1.5,0.2-3,0.6-4.4
				c1.5-6.4,3.2-12.9,5.1-19.2c2.1-7,4.3-13.9,6.8-20.8c1.1-3,2.1-5.9,3.3-8.9c0.2-0.6,1.6-4,0.8-2c0.5-1.2,1.1-2.4,1.6-3.6
				c0.8-1.9,1.8-3.6,3.1-5.2c0.4-0.4,2.7-2.4,1.9-1.8c0.5-0.4,1-0.7,1.6-0.9c1-0.5-0.8,0.1,1.1-0.4c1.5-0.4,3.7-1.1,4.2-0.2
				c0.4,0.6-6.1-5.3-2.5-2.1c-0.2-0.2-1-1.1-0.2-0.5c0.6,0.4,0.3-0.7-0.1,0.1c0,0.7,0,0.8,0,0.1c0.1-0.8-0.1-0.6-0.3,0.7
				c0,0,0.7-1.6-0.1-0.1c-0.6,1.2-0.1,0.1,0.2-0.2c-0.7,0.3-1.4,0.6-2.1,1c1.6-1,1.9-0.7,0.1-0.1c-0.9,0.3-1.8,0.6-2.7,0.8
				s-1.8,0.4-2.7,0.5c2.6-0.5,0.2-0.1-1,0c-3.5,0.3-7,0.3-10.5,0.2c-3.6,0.1-7.1-0.1-10.6-0.7c-1.8-0.4-3.7-0.8-5.5-1.3
				c-0.9-0.3-1.8-0.6-2.7-0.9c1.1,0.4,0,0-0.5-0.2c-0.5-0.3-1-0.6-1.5-1c0.7,0.4,1.2,1.3-0.1-0.2c-1.1-1.3-0.4,0.1-1.3-1.5
				c-1.2-2.2-0.9-4.5-0.1-7.3c0.9-3.4,2.4-6.6,4.3-9.5c0.5-0.9,1.2-1.7,2-2.3c1.6-1.4-1.1,0.8,0.5-0.4c0.2-0.1,2.4-1.3,1.2-0.8
				c0.9-0.4,3.5-1.1,3.5-1.1c-0.2,0,1.5-0.4,1.7,0.1c-0.2-0.4-1.5-1.3-1.9-1.8s-0.3-1.1-0.4-1.7c0.5,2.3,0.3-0.5,0,0.7
				c-0.3,0.8-0.9,1.4-1.6,1.8c-2.7,1-5.5,1.5-8.4,1.5c-6.4,0.3-13.7,0.2-19.6-1.1c-0.7-0.2-1.4-0.4-2.1-0.6c0.5,0.1,2,1.2,0.3,0.1
				c-0.3-0.2-1.3-1.1-0.2-0.1c1.3,1.1-0.2-0.3-0.4-0.6c-0.6-1,0.1,0.1,0.2,0.2c-0.3-0.4-0.6-1.9-0.3-0.6c-0.3-1.4-0.1-2.2-0.3-4.2
				s-0.4,1.9,0.1-0.8c0.2-1.1,0.4-2.3,0.6-3.4c0.6-2.9,1.3-5.7,2.1-8.6c3.3-12,7.8-23.6,13.3-34.7c2.9-5.8,6.1-11.5,9.7-16.9
				c0.9-1.4,1.9-2.8,2.9-4.2c1.5-2.1,1.2-1.6,0.5-0.8s0.8-1,0.9-1.2c1.8-2.2,3.7-4.2,5.8-6.2c0.9-0.8,1.8-1.6,2.8-2.4
				c1.5-1.2-2.2,1.4,0.3-0.2c0.8-0.5,1.6-1.1,2.3-1.6c3.9-2.6,8-4.9,12.3-6.8c2.8-1.2,5.7-2.2,8.7-3c2.4-0.7,7.5-1.7,8.6-1.9
				c-0.9,0.1,2.2-0.2,2.8-0.2c1.3-0.1,2.6-0.1,3.8-0.1c0.8,0,1.6,0.1,2.5,0.1c3.4,0.1-2.1-0.5,0.7,0.1c2,0.3,3.9,0.7,5.9,1.2
				c1,0.3,2.1,0.6,3.1,1c-2.4-1,0.7,0.6,1.5,1c1.8,1,0.4,0.3,0-0.1c0.5,0.5,1,0.9,1.5,1.4c0.1,0.1,1.1,1.5,0.4,0.5s0.5,0.9,0.6,1.1
				c0.6,1.2,0.2,0.1,0.1-0.1c0.3,0.8,0.6,1.6,0.8,2.5c0.2,0.7,0.3,1.4,0.5,2.1c0.3,1.5,0-0.8,0.1,1.2c0,1.3,0,2.7-0.1,4
				c0,0.3-0.3,2.7-0.1,1.4s-0.2,0.8-0.2,0.8c-0.6,2.8-1.5,5.5-2.5,8.2c-2.7,5.6-6,9.8-10.9,12.6c-7.3,3.9-15,6.8-23.1,8.7
				c-12.2,3-24.6,3.6-37.8,3.7c-11,0.1-22-0.7-33-1.6c-6.9-0.5-13.7-1.2-20.6-1.9c-7-0.8-10.3-1.2-16.9-2.2
				c-5.2-0.8-10.4-1.8-15.5-3.1C16.7,67.5,10.3,90.6,25.2,94.5L25.2,94.5z"/>
		</g>
		<path class="st5" d="M233.4,182.7c-1.6-0.9-3.7-0.4-4.7,1.2c-9.1,12.2-19.4,24.3-31.2,34.4s-25.2,18.4-40.6,20.9
			c-3.5,0.5-7.1,0.7-10.6,0.6c-1.5-0.1-3.1-0.2-4.6-0.4h-0.2h0.2l-0.6-0.1l-1.1-0.2c-0.8-0.1-1.6-0.3-2.3-0.5
			c-1.3-0.3-2.6-0.8-3.9-1.3l-0.2-0.1l0.2,0.1l-0.4-0.2l-0.9-0.4c-0.6-0.3-1.2-0.6-1.8-1c-0.3-0.2-0.6-0.4-0.8-0.5
			c-0.1-0.1-0.4-0.3-0.6-0.4c0.1,0.1,0.2,0.1,0,0s-0.1-0.1,0,0l-0.4-0.3c-0.3-0.2-0.5-0.5-0.8-0.8c-0.4-0.4-0.8-0.9-1.2-1.4l0.1,0.1
			c0,0-0.4-0.4-0.1-0.1l0,0l-0.2-0.2c-0.2-0.3-0.4-0.6-0.6-0.9c-0.3-0.5-0.6-1.1-0.9-1.6l-0.1-0.1c0.1,0.2-0.1-0.2,0,0
			c0,0,0-0.1-0.1-0.3c-0.1-0.4-0.3-0.8-0.4-1.1c-0.2-0.6-0.3-1.3-0.5-1.9c0-0.1-0.1-0.7-0.1-0.8c0,0,0,0.1,0,0s0-0.1,0,0
			c0-0.2-0.1-0.8-0.1-1c-0.1-3.6,0.3-7.1,1.3-10.5l1.2-4.5c1.5-5.7,3-11.4,4.8-17c2.2-7.3,4.7-14.5,7.4-21.6c1.9,0.1,3.8,0.1,5.7,0
			c5.6,0,11.5-0.2,16.9-2c2.3-0.7,4.6-1.7,6.6-2.9c3.4-2.3,5.8-5.7,6.9-9.7c1.1-3.6,0.7-7.5-1-10.9c-2.2-3.9-6.5-5.6-10.8-6.1
			c-7.9-0.8-16,3.1-20.9,9.2c-3.7,4.6-6,9.9-8.1,15.3c-2-0.1-3.9-0.4-5.8-0.8c-2.2-0.4-4.4-1-6.5-1.6c-0.9-0.3-1.7-0.6-2.6-0.9
			c-0.7-0.2-1.3-0.5-1.9-0.9c-0.5-0.3-1-0.6-1.5-0.9l-0.1-0.1c0.1,0.1-0.2-0.1,0,0c-0.1-0.1-0.2-0.1-0.2-0.2l-0.8-0.7
			c-1.1-1-2.2-2.1-3-3.4c-1.8-3-2.6-6.5-2.1-10c5.3,0.3,10.7,0.2,16-0.6c8.1-1.1,15.9-4.8,18.7-13.1c1.2-3.3,1.1-6.9-0.1-10.2
			c-1.7-3.9-5.3-6.7-9.5-7.3c-8.3-1.2-16.6,1.8-22.2,8c-3.2,3.9-5.7,8.3-7.5,13c-0.4,0.9-0.7,1.9-1,2.8c-1.4-0.1-2.7-0.3-4-0.5
			c-1.6-0.2-3.1-0.5-4.6-1l-0.8-0.3c0.7,0.3-0.1-0.1-0.3-0.1c-0.5-0.3-1-0.6-1.5-0.9l0,0l0,0l-0.2-0.1l0.1,0.1l-0.2-0.2l-0.7-0.6
			c-0.2-0.2-0.4-0.4-0.6-0.7l-0.4-0.5c0.1,0.1,0.1,0.2,0,0s0-0.1,0,0c-0.1-0.1-0.2-0.3-0.2-0.4l-0.3-0.5c-0.2-0.4-0.4-0.7-0.6-1.1
			c-0.3-0.6-0.6-1.2-0.7-1.9c-0.5-1.8-0.7-3.6-0.6-5.5c0-0.6,0-1.1,0.1-1.7c0,0.1,0,0.1,0-0.3c0,0.1,0,0.2,0,0.3
			c0-0.1,0.1-0.5,0.1-0.6c0-0.4,0.1-0.7,0.2-1.1c1.4-8.3,3.6-16.4,6.5-24.3c5.4,0.3,10.9,0.6,16.4,0.7c6.1,0.2,12.2-0.1,18.3-0.3
			c8.2-0.3,16.4-1.2,24.5-2.7c9.5-1.9,18.8-5,27.5-9.2c1.5-0.7,3-1.5,4.4-2.3c2.7-1.5,5.2-3.4,7.5-5.6c2.9-2.9,5.5-6.1,7.5-9.7
			c7.2-12.6,10.3-31.4-0.4-43c-4.1-4.4-9.8-6.9-15.6-8.2c-4.9-1.1-9.9-1.5-14.9-1.2c-7.9,0.6-15.6,2.3-23,5.2
			c-8.8,3.3-16.9,8.1-24,14.2c-5.1,4.7-9.6,10-13.3,15.8c-0.7,1-1.3,2-1.9,3c-3.5,5.5-6.7,11.3-9.5,17.2c-3,6.1-5.7,12.4-8.1,18.8
			l-2.8-0.2c-7.3-0.5-14.5-1.2-21.8-2l-1.1-0.1c-3.2-0.4-6.5-0.7-9.7-1.2c-1.8-0.2-2.7-0.4-4.6-0.6c-1.7-0.2-3.3-0.5-5-0.8
			c-5.4-0.8-10.7-1.9-16-3.2c-4.3-1.1-6.1,5.5-1.8,6.6c11,2.9,22.3,4.4,33.6,5.6l7.5,0.8c6.4,0.7,12.9,1.2,19.4,1.7
			c-1.8,5.4-3.4,10.9-4.7,16.5c-1.6,6.9-3.1,14.4-0.2,21.2c1.3,3.1,3.5,5.7,6.3,7.7c2.7,1.8,5.9,2.6,9.1,3c1.3,0.2,2.7,0.4,4,0.5
			c-0.2,1.4-0.2,2.9-0.2,4.3c0.3,7.9,5.9,15.3,13,18.4c5.1,2.1,10.5,3.5,16.1,4c-4.6,12.6-8.6,25.4-11.9,38.4
			c-0.2,0.9-0.4,1.7-0.6,2.6c-1.9,7.5-3,15.3,0.6,22.5c2.9,5.7,8.5,9.3,14.4,11.2c7,2,14.3,2.6,21.5,1.6c8.5-1.1,16.8-3.6,24.4-7.6
			c15.4-7.8,28.5-19.9,39.8-32.8c5.3-6,10.3-12.2,15-18.6C235.7,185.9,234.9,183.5,233.4,182.7z M100,82.1c2.8-6.7,6-13.3,9.6-19.6
			c1.7-3.1,3.5-6.1,5.5-9c0.6-0.9,1.2-1.7,1.7-2.6c1.3-1.9,2.6-3.7,3.9-5.2c1.9-2.4,4-4.7,6.2-6.8c1-1,2.1-1.9,3.2-2.8l0,0l-0.1,0.1
			l0.1-0.1l0.2-0.2l1-0.8c1-0.8,2.1-1.5,3.2-2.2c7.3-4.9,15.4-8.5,23.9-10.7c1.8-0.5,3.5-0.8,5.3-1.2c1.9-0.4,2.6-0.4,4.3-0.6
			c2.7-0.3,5.3-0.4,8-0.3c0.5,0,1,0,1.5,0.1l0.7,0.1h0.1h0.2c0.6,0.1,0,0-0.2,0l0.6,0.1l0.8,0.1l1.6,0.3c2.4,0.4,4.7,1,7,1.8
			l0.9,0.3h0.1c-0.4-0.2,0.4,0.1,0,0h0.1c0.6,0.3,1.3,0.6,1.9,0.9s1.1,0.6,1.6,1l0.8,0.6l0.2,0.2c-0.1-0.1,0.1,0.1,0,0
			c0.1,0.1,0.1,0.1,0.2,0.2c0.5,0.4,1,0.9,1.4,1.3c0.2,0.2,0.5,0.5,0.7,0.8l0.3,0.4l0.1,0.1c-0.1-0.2,0.1,0.1,0,0l0,0
			c0.9,1.2,1.7,2.5,2.3,3.9c0.3,0.6,0.1,0.3,0.1,0.2c0.1,0.2,0.1,0.3,0.2,0.5c0.1,0.4,0.3,0.8,0.4,1.2c0.3,0.9,0.5,1.8,0.7,2.7
			c0.3,1.5,0.4,3,0.5,4.5c0.1,3.1-0.2,6.2-1,9.1c-1.5,6.8-4.7,13.2-9.4,18.4c-2.5,2.7-5.5,5-8.7,6.8c-4.3,2.3-8.8,4.3-13.4,5.8
			c-4.1,1.5-8.3,2.7-12.5,3.7c-2,0.4-4,0.8-6,1.2c-1.7,0.3-3.6,0.6-5.1,0.8c-7.3,0.9-14.6,1.2-21.9,1.4c-8.4,0.3-16.8,0-25.2-0.5
			C98.3,86.1,99.1,84.1,100,82.1z M113.5,131.4c0.9-1.8,2-3.5,3.2-5.1c0.5-0.7,1.1-1.3,1.7-1.9c0.3-0.3,0.6-0.6,1-0.9
			c0.2-0.2,0.5-0.4,0.8-0.6c1.3-0.9,2.6-1.6,4.1-2.2c0.8-0.3,1.7-0.6,2.6-0.8c0.4-0.1,0.8-0.2,1.3-0.3l0.6-0.1h0.2c-0.4,0,0.1,0,0,0
			l0,0c0.9-0.1,1.8-0.1,2.7-0.1c0.7,0,1.4,0.1,2.1,0.3c1.3,0.3,2.6,1,3.4,2c0,0,0.6,1.1,0.5,0.7l-0.1-0.1c0,0.1,0,0.1,0.1,0.1
			c0.1,0.2,0.2,0.5,0.2,0.8s0.1,0.6,0.2,0.8c0-0.1,0-0.1,0,0s0,0.1,0,0c0,0.2,0.1,0.7,0.1,0.8c0,0.3,0,0.6,0,0.9s0,0.4,0,0.6
			c0,0,0,0.1,0,0.2c0-0.1,0-0.2,0,0s0,0.1,0,0c0,0.1,0,0.1,0,0.2c-0.1,0.3-0.1,0.5-0.2,0.8s-0.2,0.8-0.3,1.1c0,0.1-0.2,0.6-0.2,0.6
			l0.1-0.1c-0.1,0.1-0.1,0.1-0.1,0.1c-0.3,0.8-0.8,1.5-1.2,2.2l-0.1,0.1l0.1-0.1c0,0.1-0.1,0.2-0.1,0.1l-0.3,0.3
			c-0.3,0.3-0.6,0.6-0.9,0.9c-0.5,0.5-1.2,1-1.8,1.3c-2.9,1.5-6,2.5-9.3,2.8c-4.1,0.5-8.2,0.6-12.2,0.4H111
			C111.7,135.2,112.5,133.3,113.5,131.4L113.5,131.4z M141.5,163.1c0.1-0.1,0.1-0.3,0.2-0.4l0,0l0,0v-0.1l0,0v-0.1l0.4-1
			c0.9-2.1,1.9-4.1,3-6c1.7-2.9,4.1-5.4,6.9-7.2c0.6-0.4,1.3-0.7,2-1l0.3-0.1h-0.1h0.1l0.4-0.1l1.3-0.5c1.4-0.5,2.9-0.8,4.4-0.8
			c1.5-0.1,3,0,4.4,0.5c0.6,0.2,1.2,0.5,1.8,0.9c0.4,0.3,0.7,0.6,1,1c0.1,0.1,0.3,0.5,0.4,0.6c0-0.1,0-0.1,0,0s0,0.1,0,0
			c0,0.1,0.2,0.6,0.2,0.7c0.1,0.3,0.1,0.6,0.2,0.9c0.1,0.7,0,0.2,0,0c0,0.2,0,0.4,0,0.6c0.1,1.4-0.1,2.8-0.6,4.1
			c-0.2,0.6-0.5,1.2-0.8,1.7c-0.3,0.6-0.7,1.1-1.1,1.6c-0.9,1-2,1.8-3.2,2.2c-0.4,0.2-0.7,0.3-1.1,0.5l0.3-0.1c0,0-0.7,0.3-0.4,0.2
			l0.1-0.1h-0.1l-0.7,0.3c-0.9,0.3-1.8,0.6-2.6,0.9c-1,0.3-1.9,0.5-2.9,0.6l-0.8,0.1h-0.1c0.5-0.1-0.4,0.1,0,0h-0.1l-1.9,0.2
			c-3.4,0.3-6.8,0.3-10.2,0.3h-0.7C141.3,163.5,141.4,163.3,141.5,163.1L141.5,163.1z"/>
		<path class="st0" d="M10.8,147.3c2.3-0.1,4.7-0.2,7-0.4c1-0.1,2.1-0.2,3.1-0.3l0,0H21l1.4-0.2c3-0.5,5.9-1.3,8.7-2.3
			c0.7-0.2,1.4-0.6,2-0.8c-1.6,0.6,0.3-0.1,0.9-0.4c0.9-0.4,1.8-0.8,2.6-1.3c0.3-0.2,1.2-0.8,1.1-0.7s0.9-0.8,1.2-1
			c1.6-1.5,2.9-3.4,3.7-5.4c-0.3,0.6,0.3-1,0.5-1.3c0.2-0.5,0.3-1.1,0.5-1.6c0.1-0.3,0.2-1.2,0.3-1.4s0.1-1,0.1-1.2
			c0-0.7,0-1.4,0-2.1c0-0.2,0-0.5,0-0.7c-0.2-0.9-0.4-1.7-0.7-2.6c0,0-0.4-0.7-0.5-0.9c-0.5-0.8-0.2-0.3-0.7-0.9
			c-0.6-0.7-1.4-1.3-2.3-1.7l-0.6-0.3l-0.4-0.2c-0.7-0.2-1.3-0.4-2-0.6c-0.9-0.3-1.8-0.4-2.7-0.4c-1.4-0.1-2.8,0-4.2,0.1l-0.7,0.1
			l-0.5,0.1c-0.6,0.1-1.1,0.2-1.7,0.3c-1.3,0.3-2.5,0.6-3.8,1l-1.6,0.6l-0.4,0.1l-0.7,0.3c-1.2,0.6-2.4,1.2-3.5,1.9
			c-0.9,0.5-1.7,1.1-2.5,1.8C7.7,130.6,4,138,0.6,146c0,0.1-0.5,1.1-0.6,1.3v0.1C3.6,147.4,7.2,147.4,10.8,147.3z"/>
		<path class="st0" d="M226.9,142.6c2.3-0.1,4.7-0.2,7-0.4c1-0.1,2.1-0.2,3.1-0.3l0,0h0.1l1.4-0.2c3-0.5,5.9-1.3,8.7-2.3
			c0.7-0.2,1.4-0.6,2.1-0.8c-1.6,0.6,0.3-0.1,0.9-0.4c0.9-0.4,1.8-0.8,2.6-1.3l1.1-0.7c-0.1,0,0.9-0.8,1.2-1
			c1.6-1.5,2.9-3.3,3.7-5.4c-0.3,0.6,0.4-1,0.5-1.3c0.2-0.5,0.3-1.1,0.5-1.6c0.1-0.3,0.2-1.2,0.3-1.4s0.1-1,0.1-1.2
			c0-0.7,0-1.4,0-2.1c0-0.2,0-0.5,0-0.7c-0.1-0.9-0.4-1.7-0.7-2.6c0,0-0.4-0.7-0.5-0.9c-0.5-0.8-0.2-0.3-0.7-0.9
			c-0.6-0.7-1.4-1.3-2.3-1.7l-0.6-0.3l-0.4-0.2c-0.7-0.2-1.3-0.4-2-0.6c-0.9-0.2-1.8-0.4-2.7-0.4c-1.4-0.1-2.8,0-4.2,0.1l-1.1,0
			l-0.5,0.1c-0.6,0.1-1.1,0.2-1.7,0.3c-1.3,0.3-2.5,0.6-3.8,1.1l-1.6,0.6l-0.4,0.1l-0.7,0.3c-1.2,0.6-2.4,1.2-3.5,1.9
			c-0.9,0.5-1.7,1.1-2.5,1.8c-6.7,5.7-10.4,13.2-13.8,21.1c0,0.1-0.5,1.1-0.6,1.4v0.1C219.6,142.8,223.3,142.7,226.9,142.6z"/>
		<path class="st0" d="M117.3,226.9c0.1,2.3,0.2,4.7,0.4,7c0.1,1,0.2,2.1,0.3,3.1l0,0v0.1c0.1,0.4,0.1,0.9,0.2,1.4
			c0.5,3,1.3,5.9,2.3,8.7c0.3,0.7,0.6,1.4,0.8,2.1c-0.6-1.6,0.1,0.3,0.4,0.9c0.4,0.9,0.8,1.8,1.3,2.6c0.2,0.3,0.8,1.2,0.7,1.1
			s0.8,0.9,1,1.2c1.5,1.6,3.3,2.9,5.4,3.7c-0.6-0.3,1,0.4,1.3,0.5c0.5,0.2,1.1,0.3,1.6,0.5l1.4,0.3l1.2,0.1c0.7,0,1.4,0,2.1,0
			c0.2,0,0.5,0,0.7,0c0.9-0.1,1.7-0.4,2.6-0.7c0,0,0.7-0.4,0.9-0.5c0.9-0.5,0.4-0.2,0.9-0.7c0.7-0.6,1.3-1.4,1.7-2.3l0.3-0.6
			l0.2-0.4c0.2-0.7,0.4-1.3,0.6-2c0.3-0.9,0.4-1.8,0.4-2.7c0.1-1.4,0-2.8-0.1-4.2c0-0.2-0.1-0.5-0.1-0.7s-0.1-0.4-0.1-0.5
			c-0.1-0.6-0.2-1.1-0.3-1.7c-0.3-1.3-0.6-2.5-1.1-3.8c-0.2-0.5-0.4-1.1-0.6-1.6c-0.1-0.1-0.1-0.3-0.1-0.4l-0.3-0.7
			c-0.6-1.2-1.2-2.4-1.9-3.5c-0.5-0.9-1.1-1.7-1.8-2.5c-5.7-6.7-13.2-10.4-21.2-13.8l-1.3-0.6H117
			C117.2,219.6,117.2,223.3,117.3,226.9z"/>
		<path class="st0" d="M111.1,10.8c0.1,2.3,0.2,4.7,0.4,7c0.1,1,0.2,2.1,0.3,3.1l0,0V21c0.1,0.5,0.1,0.9,0.2,1.4
			c0.5,3,1.3,5.9,2.3,8.7c0.2,0.7,0.6,1.4,0.8,2.1c-0.6-1.6,0.1,0.3,0.4,0.9c0.4,0.9,0.8,1.8,1.3,2.6c0.2,0.3,0.8,1.2,0.7,1.1
			s0.8,0.9,1,1.2c1.5,1.6,3.4,2.9,5.4,3.7c-0.6-0.3,1,0.3,1.3,0.5c0.5,0.2,1.1,0.3,1.6,0.5l1.4,0.3l1.2,0.1c0.7,0,1.4,0,2.1,0h0.7
			c0.9-0.1,1.7-0.4,2.6-0.7c0,0,0.7-0.4,0.9-0.5c0.9-0.5,0.4-0.2,0.9-0.7c0.7-0.6,1.3-1.4,1.7-2.3c0-0.1,0.2-0.5,0.3-0.6
			s0.2-0.4,0.2-0.4c0.2-0.7,0.4-1.3,0.6-2c0.3-0.9,0.4-1.8,0.4-2.7c0.1-1.4,0-2.8-0.1-4.3c0-0.2,0-0.5-0.1-0.7s0-0.4-0.1-0.5
			c-0.1-0.6-0.2-1.1-0.3-1.7c-0.3-1.3-0.6-2.5-1-3.8c-0.2-0.5-0.4-1.1-0.6-1.6c0-0.1-0.1-0.3-0.1-0.4s-0.2-0.4-0.3-0.7
			c-0.6-1.2-1.2-2.4-1.9-3.5c-0.5-0.9-1.1-1.7-1.8-2.5C127.8,7.7,120.3,4,112.4,0.6L111.1,0H111C110.9,3.6,111,7.2,111.1,10.8z"/>
		<path class="st0" d="M850,144.3c2.3-0.1,4.7-0.2,7-0.4c1-0.1,2.1-0.2,3.1-0.3l0,0h0.1l1.4-0.2c3-0.5,5.9-1.3,8.7-2.3
			c0.7-0.3,1.4-0.6,2-0.8c-1.6,0.6,0.3-0.1,0.9-0.4c0.9-0.4,1.8-0.8,2.6-1.3l1.1-0.7c-0.1,0.1,0.9-0.8,1.2-1
			c1.6-1.5,2.9-3.3,3.7-5.4c-0.3,0.6,0.3-1,0.5-1.3c0.2-0.5,0.3-1.1,0.4-1.6c0.1-0.3,0.2-1.2,0.3-1.4s0.1-1,0.1-1.2
			c0-0.7,0-1.4,0-2.1c0-0.2,0-0.5,0-0.7c-0.2-0.9-0.4-1.7-0.7-2.6c0,0-0.4-0.7-0.5-0.9c-0.5-0.8-0.2-0.3-0.7-0.9
			c-0.6-0.7-1.4-1.3-2.3-1.7l-0.6-0.3l-0.4-0.2c-0.7-0.2-1.3-0.4-2-0.6c-0.9-0.3-1.8-0.4-2.7-0.4c-1.4-0.1-2.8,0-4.2,0.1l-0.7,0.1
			l-0.5,0.1c-0.6,0.1-1.2,0.2-1.7,0.3c-1.3,0.3-2.5,0.6-3.8,1.1c-0.5,0.2-1.1,0.4-1.6,0.6l-0.3,0.1l-0.7,0.3
			c-1.2,0.6-2.4,1.2-3.5,1.9c-0.9,0.5-1.7,1.1-2.5,1.8c-6.7,5.7-10.4,13.2-13.8,21.1c0,0.1-0.5,1.1-0.6,1.4v0.1
			C842.8,144.5,846.4,144.5,850,144.3z"/>
		<path class="st2" d="M269.6,108.8h-9.7v-7.9h27.8v7.9H278v50.7h-8.4V108.8L269.6,108.8z"/>
		<path class="st2" d="M301.3,100.9h8.4V126h10.4v-25.1h8.4v58.6h-8.4v-26.1h-10.4v26.1h-8.4V100.9z"/>
		<path class="st2" d="M346.2,100.9h25v7.9h-16.6V126h14.5v7.9h-14.5v17.2h16.6v8.4h-25V100.9z"/>
		<path class="st2" d="M411.8,100.9h25v7.9h-16.6V126h14.5v7.9h-14.5v17.2h16.6v8.4h-25V100.9z"/>
		<path class="st2" d="M451.8,100.9h8.1l12.7,35.3h0.2v-35.3h8.4v58.6h-7.9l-12.9-35.2h-0.2v35.2h-8.4L451.8,100.9L451.8,100.9z"/>
		<path class="st2" d="M496.1,114.7c0-2.2,0.4-4.3,1.2-6.3c0.7-1.7,1.9-3.2,3.2-4.5c1.3-1.2,2.9-2.1,4.5-2.7c3.3-1.2,6.9-1.2,10.1,0
			c1.7,0.6,3.2,1.5,4.5,2.7c1.4,1.2,2.5,2.8,3.2,4.5c0.9,2,1.3,4.1,1.2,6.3v3h-8.4v-3c0.1-1.7-0.5-3.3-1.7-4.5c-2.3-1.9-5.7-1.9-8,0
			c-1.2,1.2-1.8,2.8-1.7,4.5v31c-0.1,1.7,0.5,3.3,1.7,4.5c2.3,1.9,5.7,1.9,8,0c1.2-1.2,1.8-2.8,1.7-4.5v-11h-6.7v-7.5H524v18.4
			c0.1,2.2-0.4,4.3-1.2,6.3c-0.8,1.7-1.9,3.2-3.2,4.4s-2.9,2.1-4.5,2.7c-3.3,1.2-6.9,1.2-10.1,0c-1.7-0.6-3.2-1.5-4.5-2.7
			c-1.4-1.2-2.5-2.7-3.2-4.4c-0.9-2-1.3-4.1-1.2-6.3L496.1,114.7z"/>
		<path class="st2" d="M539.3,100.9h8.1l10.8,31h0.2l10.7-31h8.2v58.6h-8.4v-35.7h-0.2l-8.3,25.2h-4.2l-8.3-25.2h-0.2v35.7h-8.4
			L539.3,100.9z"/>
		<path class="st2" d="M592.2,100.9h8.1l12.7,35.3h0.2v-35.3h8.4v58.6h-7.9l-12.8-35.2h-0.2v35.2h-8.4L592.2,100.9z"/>
		<path class="st2" d="M646.3,108.8h-9.7v-7.9h27.8v7.9h-9.7v50.7h-8.4L646.3,108.8z"/>
		<path class="st2" d="M679.4,100.9H692c2.1,0,4.1,0.3,6.1,0.9c1.8,0.7,3.5,1.8,4.8,3.2c1.4,1.5,2.5,3.4,3,5.4
			c0.6,2.7,0.9,5.5,0.8,8.4c0,2.2-0.1,4.4-0.5,6.6c-0.3,1.8-0.9,3.6-1.9,5.2c-1.1,1.9-2.7,3.4-4.6,4.5c-2.4,1.2-5,1.7-7.6,1.6h-4.2
			v22.9h-8.4L679.4,100.9z M687.8,128.7h4c1.4,0.1,2.7-0.2,4-0.7c0.9-0.4,1.6-1.1,2-2c0.5-1,0.7-2,0.8-3.1c0.1-1.2,0.1-2.6,0.1-4
			s0-2.7-0.1-3.9c-0.1-1.1-0.3-2.2-0.7-3.2c-0.4-0.9-1.1-1.6-1.9-2.1c-1.2-0.6-2.5-0.9-3.8-0.8h-4.4L687.8,128.7z"/>
		<path class="st2" d="M721.7,100.9h13.5c9.9,0,14.8,5.7,14.8,17.2c0.1,3-0.5,6-1.6,8.8c-1.2,2.5-3.2,4.6-5.7,5.9l9.1,26.8h-8.9
			l-7.8-25h-5v25h-8.4L721.7,100.9z M730.1,127.1h4.8c1.2,0,2.4-0.2,3.5-0.6c0.8-0.4,1.5-1,2-1.8c0.5-0.9,0.8-1.8,0.9-2.8
			c0.3-2.6,0.3-5.2,0-7.8c-0.1-1-0.5-2-1-2.9c-0.5-0.8-1.3-1.4-2.2-1.8c-1.2-0.4-2.4-0.6-3.7-0.6H730L730.1,127.1z"/>
		<path class="st2" d="M774.6,108.8h-9.7v-7.9h27.8v7.9H783v50.7h-8.4V108.8z"/>
		<path class="st2" d="M819.2,134.8L807.7,101h8.9l6.8,23.3h0.2l6.8-23.3h8.9l-11.5,33.8v24.8h-8.4v-24.8H819.2z"/>
	</g>
</g>
</svg>
